# xmcd
#
# Track frame offsets:
# 150
# 12619
# 38867
# 61767
# 78961
# 96857
# 112655
# 133776
# 149323
# 162634
# 178371
#
# Disc length: 2718 seconds
#
#
# Revision: 1
# Processed by: cddbd v1.5.2PL0 Copyright (c) Steve Scherf et al.
# Submitted via: FreeRIP 2.945 
#
DISCID=940a9c0b
DTITLE=Taj Mahal - Hanapepe Dream
DYEAR=2000
DGENRE=Blues
TTITLE0=Great Big Boat
TTITLE1=Blackjack Davey
TTITLE2=Moonlight Lady
TTITLE3=King Edward's Throne
TTITLE4=African Herbman
TTITLE5=Baby You're My Destiny
TTITLE6=Stagger Lee
TTITLE7=Livin' On Easy
TTITLE8=My Creole Belle
TTITLE9=All Along The Watchtower
TTITLE10=Hanapepe Dream
EXTD=Retail disc comes with CD Extras.\nNot on this er.... version !
EXTT0=
EXTT1=
EXTT2=
EXTT3=
EXTT4=
EXTT5=
EXTT6=
EXTT7=
EXTT8=
EXTT9=
EXTT10=
PLAYORDER=
